<svg xmlns="http://www.w3.org/2000/svg" viewBox="0 0 225 225" width="150" height="150" role="img" aria-label="Ashoka Chakra">
  <title>Ashoka Chakra (24-spoke wheel)</title>

  <!-- Parameters -->
  <!-- center -->
  <g id="chakra" transform="translate(112.5,112.5)">
    <!-- Outer rim -->
    <circle r="100" fill="none" stroke="#000080" stroke-width="10"/>

    <!-- Inner hub (small filled circle) -->
    <circle r="8" fill="#000080" stroke="none"/>

    <!-- Spokes: 24 lines from innerRadius to outerRadius -->
    <!-- innerRadius = 40, outerRadius = 100 -->
    <g stroke="#000080" stroke-width="4" stroke-linecap="round">
      <!-- draw one spoke at angle 0 and then rotate copies -->
      <line x1="0" y1="-100" x2="0" y2="-40"/>
      <line x1="0" y1="-100" x2="0" y2="-40" transform="rotate(15)"/>
      <line x1="0" y1="-100" x2="0" y2="-40" transform="rotate(30)"/>
      <line x1="0" y1="-100" x2="0" y2="-40" transform="rotate(45)"/>
      <line x1="0" y1="-100" x2="0" y2="-40" transform="rotate(60)"/>
      <line x1="0" y1="-100" x2="0" y2="-40" transform="rotate(75)"/>
      <line x1="0" y1="-100" x2="0" y2="-40" transform="rotate(90)"/>
      <line x1="0" y1="-100" x2="0" y2="-40" transform="rotate(105)"/>
      <line x1="0" y1="-100" x2="0" y2="-40" transform="rotate(120)"/>
      <line x1="0" y1="-100" x2="0" y2="-40" transform="rotate(135)"/>
      <line x1="0" y1="-100" x2="0" y2="-40" transform="rotate(150)"/>
      <line x1="0" y1="-100" x2="0" y2="-40" transform="rotate(165)"/>
      <line x1="0" y1="-100" x2="0" y2="-40" transform="rotate(180)"/>
      <line x1="0" y1="-100" x2="0" y2="-40" transform="rotate(195)"/>
      <line x1="0" y1="-100" x2="0" y2="-40" transform="rotate(210)"/>
      <line x1="0" y1="-100" x2="0" y2="-40" transform="rotate(225)"/>
      <line x1="0" y1="-100" x2="0" y2="-40" transform="rotate(240)"/>
      <line x1="0" y1="-100" x2="0" y2="-40" transform="rotate(255)"/>
      <line x1="0" y1="-100" x2="0" y2="-40" transform="rotate(270)"/>
      <line x1="0" y1="-100" x2="0" y2="-40" transform="rotate(285)"/>
      <line x1="0" y1="-100" x2="0" y2="-40" transform="rotate(300)"/>
      <line x1="0" y1="-100" x2="0" y2="-40" transform="rotate(315)"/>
      <line x1="0" y1="-100" x2="0" y2="-40" transform="rotate(330)"/>
      <line x1="0" y1="-100" x2="0" y2="-40" transform="rotate(345)"/>
    </g>

    <!-- Thin inner circle to define the spoke bases -->
    <circle r="40" fill="none" stroke="#000080" stroke-width="3"/>
  </g>
</svg>
